# xmcd
#
# Track frame offsets:
#	150
#	23259
#	43369
#	63165
#	84200
#	102680
#	125491
#	146063
#	166395
#	187253
#	207960
#	224246
#	244467
#	266934
#	289875
#	308975
#
# Disc length: 4351 seconds
#
# Revision: 0
# Processed by: cddbd v1.5.2PL0 Copyright (c) Steve Scherf et al.
# Submitted via: audiograbber 1.83.01
#
DISCID=0610fd10
DTITLE=Sonic Seducer - Cold Hands Seduction Vol. 140 - 03-2013
DYEAR=2013
DGENRE=Gothic
TTITLE0=KMFDM - Animal Out
TTITLE1=Collapse Under The Empire - Last Stand
TTITLE2=Martin Kleid - Fat Land
TTITLE3=Geistform - Resonant Mass
TTITLE4=Kant Kino - My Game (Bunker Mix)
TTITLE5=Violet - Prometheus
TTITLE6=Chainreactor - Fighting Policy
TTITLE7=Script 6 - Rock´n´Roll Lady Shave
TTITLE8=Soror Dolorosa - The Figure Of The Night
TTITLE9=Cynical Existence - I'm Broken (Pre Emptive Strike 0.1 Rework)
TTITLE10=Wynardtage - Dissolution (Cold Hands Version) [Exklusiv]
TTITLE11=Dunkelwerk - 321 Tot...
TTITLE12=Hysteresis - Glorious Food
TTITLE13=Demoncast - Bitch
TTITLE14=Mystigma - Tiefes Rot
TTITLE15=Darkoustix - A Dog From Hell
EXTD=
EXTT0=
EXTT1=
EXTT2=
EXTT3=
EXTT4=
EXTT5=
EXTT6=
EXTT7=
EXTT8=
EXTT9=
EXTT10=
EXTT11=
EXTT12=
EXTT13=
EXTT14=
EXTT15=
PLAYORDER=
